<?xml version="1.0" standalone="no"?>
<!DOCTYPE svg PUBLIC "-//W3C//DTD SVG 20010904//EN"
 "http://www.w3.org/TR/2001/REC-SVG-20010904/DTD/svg10.dtd">
<svg version="1.0" xmlns="http://www.w3.org/2000/svg"
 width="843.000000pt" height="843.000000pt" viewBox="0 0 843.000000 843.000000"
 preserveAspectRatio="xMidYMid meet">
<metadata>
Created by potrace 1.10, written by Peter Selinger 2001-2011
</metadata>
<g transform="translate(0.000000,843.000000) scale(0.100000,-0.100000)"
fill="#01529c" stroke="none">
<path d="M4167 8258 c-14 -18 -30 -50 -37 -72 -15 -48 -9 -180 11 -221 18 -37
73 -75 109 -75 36 0 91 38 109 75 20 41 26 173 11 221 -7 22 -23 54 -37 72
-22 30 -28 32 -83 32 -55 0 -61 -2 -83 -32z"/>
<path d="M3928 7763 c-19 -32 -38 -65 -42 -73 -3 -8 -22 -40 -40 -70 -26 -41
-32 -59 -25 -72 5 -10 15 -18 21 -18 6 0 44 -20 85 -45 40 -25 77 -45 81 -45
4 0 30 -15 58 -32 70 -46 110 -68 122 -68 16 0 14 343 -1 362 -19 24 -183 118
-204 118 -14 0 -32 -19 -55 -57z"/>
<path d="M4407 7766 c-48 -29 -91 -56 -94 -60 -11 -10 -12 -356 -2 -362 5 -3
47 18 93 45 46 28 86 51 89 51 11 0 176 102 187 116 9 10 6 21 -13 46 -14 18
-48 75 -76 126 -42 73 -57 92 -74 92 -12 -1 -62 -25 -110 -54z"/>
<path d="M3659 7308 c-92 -156 -109 -191 -97 -205 5 -6 28 -21 51 -33 23 -12
60 -34 82 -49 22 -15 47 -30 55 -34 8 -4 29 -16 45 -27 17 -10 54 -31 83 -47
28 -15 52 -30 52 -34 0 -4 11 -10 25 -13 14 -4 25 -11 25 -16 0 -6 5 -10 11
-10 6 0 48 -22 94 -50 46 -27 90 -50 99 -50 14 0 16 21 16 173 0 194 5 181
-80 231 -25 15 -52 31 -60 36 -27 17 -266 158 -304 179 -20 12 -40 21 -45 21
-5 0 -28 -33 -52 -72z"/>
<path d="M4551 7246 c-123 -74 -229 -140 -235 -146 -7 -7 -11 -72 -12 -185 -1
-147 1 -175 14 -175 8 0 63 29 122 65 59 36 113 65 119 65 6 0 11 4 11 9 0 5
12 14 28 20 15 6 41 20 57 31 17 11 39 24 50 30 11 6 34 19 50 30 17 11 62 38
102 60 39 23 76 46 81 53 10 12 -8 54 -61 142 -7 11 -27 46 -45 78 -19 31 -39
57 -46 57 -6 0 -112 -60 -235 -134z"/>
<path d="M3425 6900 c-10 -22 -22 -40 -26 -40 -4 0 -11 -10 -15 -22 -3 -11
-27 -54 -51 -95 -50 -81 -49 -91 11 -118 17 -8 38 -19 46 -25 29 -19 453 -270
458 -270 2 0 17 -9 32 -20 35 -25 42 -19 96 77 21 37 50 88 66 112 36 58 35
74 -4 94 -18 9 -51 28 -73 42 -22 13 -49 29 -60 35 -11 6 -33 19 -50 30 -16
11 -39 24 -50 30 -11 6 -33 19 -50 30 -16 11 -39 24 -50 30 -11 6 -33 19 -50
30 -16 11 -39 24 -51 29 -34 15 -129 75 -132 83 -9 20 -30 5 -47 -32z"/>
<path d="M5030 6932 c0 -5 -24 -21 -52 -36 -29 -15 -66 -36 -83 -47 -16 -10
-39 -23 -50 -29 -11 -5 -29 -16 -40 -22 -17 -12 -37 -24 -120 -75 -11 -7 -29
-16 -40 -22 -11 -5 -37 -21 -58 -35 -21 -14 -40 -26 -43 -26 -3 0 -24 -13 -47
-28 -23 -16 -50 -32 -60 -35 -21 -8 -24 -2 71 -162 35 -60 69 -113 75 -117 6
-4 23 2 38 13 15 10 29 19 31 19 4 0 424 247 458 270 8 5 32 19 52 30 20 11
39 24 43 30 3 5 -22 58 -57 118 -35 59 -70 119 -78 135 -12 25 -40 38 -40 19z"/>
<path d="M4217 6597 c-13 -23 -27 -49 -30 -57 -4 -8 -11 -22 -17 -30 -24 -37
-93 -155 -101 -174 -5 -12 -18 -34 -29 -51 -11 -16 -24 -39 -30 -50 -5 -11
-14 -27 -20 -35 -5 -8 -55 -94 -111 -190 -56 -96 -135 -231 -176 -299 l-74
-124 32 -33 c26 -27 32 -42 33 -80 1 -42 -3 -49 -39 -81 -37 -32 -44 -34 -95
-30 -52 4 -74 9 -152 40 -25 9 -190 13 -670 15 -540 2 -638 0 -638 -12 0 -7 7
-19 15 -26 8 -7 15 -16 15 -21 0 -4 39 -72 86 -151 48 -79 90 -152 95 -163 5
-11 15 -29 21 -40 39 -61 328 -556 328 -562 0 -2 12 -22 27 -46 31 -49 74
-124 105 -185 19 -36 20 -46 10 -63 -7 -11 -29 -50 -49 -87 -19 -37 -42 -74
-49 -83 -8 -8 -14 -19 -14 -22 0 -4 -20 -41 -45 -81 -25 -41 -45 -78 -45 -82
0 -4 -6 -15 -14 -23 -7 -9 -25 -36 -39 -61 -56 -100 -176 -305 -215 -365 -6
-11 -17 -31 -23 -45 -6 -14 -21 -39 -35 -57 -13 -17 -24 -35 -24 -38 0 -4 -27
-51 -59 -105 -32 -53 -62 -107 -66 -119 -3 -11 -11 -21 -16 -21 -5 0 -9 -7 -9
-15 0 -13 79 -15 652 -15 693 0 651 -3 818 48 257 77 407 210 469 413 23 75
53 69 -359 69 -410 0 -400 -1 -459 65 -52 60 -39 147 31 197 33 23 34 23 433
28 l400 5 5 112 c5 107 6 113 34 142 72 75 204 64 265 -22 11 -15 18 -54 21
-127 l5 -105 395 -5 395 -5 32 -24 c71 -53 83 -143 26 -203 -53 -57 -59 -58
-457 -58 -300 0 -365 -2 -369 -14 -13 -32 26 -131 84 -217 79 -116 203 -195
404 -254 33 -10 77 -24 98 -31 56 -21 1377 -20 1377 0 0 7 -7 19 -15 26 -8 7
-15 16 -15 21 0 6 -80 147 -131 229 -5 8 -20 35 -34 60 -14 25 -30 52 -35 60
-18 27 -210 353 -210 355 0 2 -26 48 -58 102 -32 54 -61 105 -65 113 -4 8 -16
29 -27 45 -11 17 -24 39 -29 51 -5 11 -28 51 -50 88 -23 36 -41 70 -41 75 0 4
11 28 25 52 14 24 28 51 32 59 8 18 89 158 103 180 6 8 13 21 17 29 3 8 35 64
71 125 36 61 72 125 82 141 34 59 140 240 150 255 5 8 21 35 35 60 14 25 29
52 34 60 51 82 131 223 131 229 0 5 7 14 15 21 8 7 15 19 15 26 0 12 -83 14
-507 14 -280 0 -513 -4 -519 -8 -6 -4 -14 -47 -17 -97 -7 -100 -26 -225 -56
-360 -21 -98 -87 -304 -102 -319 -31 -33 2 -95 130 -244 80 -94 91 -112 91
-150 0 -27 -9 -43 -39 -73 -34 -34 -44 -39 -86 -39 -64 0 -97 22 -179 120 -37
44 -71 80 -75 80 -3 0 -36 -33 -73 -74 -65 -71 -133 -116 -177 -116 -10 0 -41
15 -69 33 l-49 34 -34 -18 c-55 -29 -103 -25 -146 15 -36 32 -93 123 -93 147
0 6 -6 25 -14 42 -39 90 -53 385 -22 459 8 20 27 46 42 57 36 29 111 29 148 0
45 -36 54 -65 55 -193 1 -65 8 -151 17 -190 20 -92 54 -176 71 -176 16 0 41
27 119 127 55 70 71 116 47 132 -11 7 -89 165 -121 246 -30 75 -59 190 -72
282 -10 72 -9 87 6 118 37 78 132 102 199 51 29 -22 35 -36 50 -103 18 -83 51
-205 65 -238 5 -11 10 -28 12 -38 6 -37 23 -16 39 50 30 121 40 186 46 295 l6
107 -29 11 c-17 7 -85 10 -169 9 -137 -3 -142 -3 -187 24 -118 69 -75 227 62
227 46 0 62 20 38 48 -8 9 -40 60 -70 112 -31 52 -98 167 -150 255 -52 88 -97
167 -101 175 -4 8 -16 29 -26 45 -11 17 -32 53 -47 80 -44 81 -48 88 -75 130
-13 22 -36 61 -49 87 -14 26 -30 50 -37 52 -6 3 -23 -14 -36 -37z m33 -839
c26 -19 50 -60 66 -113 9 -30 10 -30 99 -35 97 -6 140 -22 174 -66 44 -55 18
-120 -63 -158 -46 -22 -64 -25 -124 -22 -81 5 -95 -4 -90 -56 l3 -33 98 -3
c85 -2 104 -6 138 -27 54 -35 73 -67 66 -112 -12 -71 -90 -112 -213 -113 -65
0 -83 -3 -88 -16 -3 -9 -6 -194 -6 -411 l0 -396 -26 -34 c-33 -44 -73 -63
-129 -63 -53 0 -104 29 -132 75 -16 27 -18 66 -23 435 l-5 405 -70 6 c-79 6
-121 24 -159 69 -31 38 -33 72 -5 111 31 44 75 63 159 69 l75 5 5 205 c5 213
8 226 53 269 47 43 145 48 197 9z m-890 -453 c30 -9 75 -23 100 -30 175 -52
230 -86 246 -151 9 -33 -13 -80 -48 -105 -54 -39 -94 -36 -250 16 -193 64
-215 74 -244 108 -33 39 -33 105 -1 134 60 55 94 60 197 28z m553 -397 c49
-35 64 -88 61 -223 -5 -307 -101 -515 -237 -515 -34 0 -46 6 -79 40 -46 50
-50 94 -14 162 45 84 66 194 66 340 l0 133 31 38 c48 58 111 67 172 25z m-364
-7 c53 -27 74 -79 68 -162 -5 -69 -21 -152 -36 -184 -5 -11 -23 -51 -41 -90
-56 -124 -179 -289 -241 -321 -85 -43 -189 18 -189 112 0 38 6 50 59 109 107
121 159 230 180 379 13 94 33 132 81 157 44 24 71 24 119 0z"/>
<path d="M3129 6393 l-52 -87 24 -45 c13 -25 34 -60 47 -79 12 -18 22 -36 22
-41 0 -16 46 -50 110 -83 14 -7 53 -29 88 -50 34 -21 66 -38 71 -38 5 0 16 -6
23 -13 7 -7 24 -18 38 -25 14 -6 34 -18 45 -24 96 -62 121 -70 132 -40 4 9 26
49 50 88 24 39 43 77 43 83 0 6 4 11 9 11 8 0 31 52 31 69 0 4 -17 15 -37 26
-21 11 -60 35 -88 53 -27 18 -67 40 -87 49 -21 9 -38 20 -38 25 0 4 -5 8 -11
8 -6 0 -86 45 -178 100 -91 55 -172 100 -178 100 -6 0 -35 -39 -64 -87z"/>
<path d="M5160 6399 c-74 -45 -155 -93 -180 -106 -25 -13 -61 -33 -80 -44 -68
-40 -205 -122 -208 -125 -6 -4 18 -72 26 -76 4 -2 16 -21 27 -42 11 -22 25
-44 30 -50 6 -6 21 -33 35 -59 13 -26 26 -47 27 -47 5 0 111 59 173 96 36 22
76 45 90 52 14 7 48 26 75 43 28 16 64 36 80 44 26 11 75 64 75 80 0 3 18 35
40 71 22 36 40 71 39 78 0 21 -86 161 -100 164 -8 1 -75 -34 -149 -79z"/>
<path d="M720 6282 c-55 -27 -60 -35 -60 -100 l0 -64 58 -57 c47 -46 68 -59
111 -69 68 -16 104 -15 146 2 102 43 56 197 -79 266 -42 21 -151 35 -176 22z"/>
<path d="M7665 6284 c-133 -34 -231 -169 -184 -256 13 -24 67 -48 108 -48 79
0 134 23 193 81 l58 57 0 63 c-1 57 -3 66 -27 83 -26 20 -107 30 -148 20z"/>
<path d="M2865 6252 l-100 -3 3 -222 c2 -122 6 -285 10 -362 l7 -140 148 -3
c135 -2 147 -1 147 15 1 10 1 137 0 283 -1 203 -4 268 -14 280 -7 8 -23 36
-36 61 -44 90 -51 94 -165 91z"/>
<path d="M1212 6234 c-11 -8 -13 -27 -8 -90 12 -169 12 -169 64 -194 26 -13
64 -34 85 -47 70 -44 169 -94 174 -89 5 5 4 418 -1 423 -9 10 -301 7 -314 -3z"/>
<path d="M1734 6241 c-2 -2 -4 -124 -4 -271 0 -198 3 -270 13 -282 16 -21 272
-168 292 -168 13 0 15 42 13 361 l-3 360 -153 2 c-85 1 -156 0 -158 -2z"/>
<path d="M2259 6239 c-5 -3 -8 -150 -7 -360 l3 -354 159 -3 158 -3 -3 364 -4
363 -148 -1 c-82 0 -153 -3 -158 -6z"/>
<path d="M5505 6235 c-16 -13 -85 -130 -85 -143 0 -6 -6 -12 -12 -14 -10 -4
-13 -68 -13 -279 l0 -274 156 -3 157 -2 7 282 c3 156 5 319 3 362 l-3 79 -99
1 c-54 1 -104 -3 -111 -9z"/>
<path d="M5932 6230 c-4 -8 -7 -170 -7 -360 l0 -345 160 0 160 0 3 358 c2 282
0 357 -10 358 -7 0 -78 1 -157 2 -119 2 -145 -1 -149 -13z"/>
<path d="M6454 6241 c-2 -2 -4 -115 -5 -250 0 -135 -4 -289 -8 -341 -8 -111
-5 -130 20 -130 20 0 253 130 279 156 12 12 15 63 18 289 4 263 3 275 -14 275
-11 0 -79 1 -152 3 -74 1 -136 0 -138 -2z"/>
<path d="M6960 6023 c0 -123 2 -223 6 -223 3 0 22 11 42 25 20 14 40 25 44 25
4 0 49 25 100 55 51 31 100 59 108 64 12 7 15 33 15 141 l0 132 -158 2 -157 1
0 -222z"/>
<path d="M3207 5973 c-10 -10 -8 -311 2 -317 5 -3 14 1 21 9 29 35 120 26 248
-26 38 -15 59 -10 78 19 28 41 45 85 37 92 -10 8 -228 137 -298 175 -27 15
-57 34 -66 41 -9 8 -19 11 -22 7z"/>
<path d="M5145 5899 c-66 -39 -145 -85 -175 -102 -82 -44 -83 -46 -51 -92 l27
-40 120 -7 c73 -4 136 -13 159 -22 20 -9 41 -16 46 -16 5 0 9 79 9 175 0 96
-3 175 -7 175 -5 0 -62 -32 -128 -71z"/>
<path d="M1038 5828 c-60 -34 -108 -66 -108 -71 0 -5 24 -48 52 -96 29 -47 62
-104 74 -126 24 -44 47 -54 72 -32 9 8 22 16 27 18 43 16 305 176 305 186 0 7
-4 13 -9 13 -8 0 -236 129 -276 156 -11 8 -22 14 -25 13 -3 0 -53 -28 -112
-61z"/>
<path d="M7225 5818 c-55 -33 -121 -71 -147 -85 -27 -14 -48 -29 -48 -33 0 -5
53 -39 118 -76 64 -37 146 -84 181 -106 60 -37 64 -38 82 -22 11 9 19 21 19
25 0 4 30 56 66 115 36 58 63 112 60 119 -5 15 -199 125 -218 124 -7 0 -58
-28 -113 -61z"/>
<path d="M1619 5556 c-24 -13 -71 -38 -104 -56 -66 -36 -154 -84 -182 -99 -76
-41 -143 -84 -143 -92 0 -6 18 -41 40 -77 21 -37 52 -92 68 -122 36 -66 54
-80 77 -57 9 9 21 17 26 17 5 0 37 17 71 38 35 20 86 48 113 61 28 14 52 27
55 30 3 4 30 19 60 34 30 16 71 38 90 49 33 20 105 59 154 85 50 27 51 40 4
64 -24 12 -45 24 -48 28 -3 3 -21 14 -40 25 -19 10 -67 36 -107 57 -40 21 -76
39 -81 39 -5 0 -29 -11 -53 -24z"/>
<path d="M6740 5538 c-30 -17 -73 -41 -95 -53 -83 -45 -134 -80 -135 -92 0 -7
12 -18 28 -27 15 -8 50 -26 77 -40 28 -15 77 -42 110 -61 33 -20 71 -40 85
-46 13 -6 27 -13 30 -17 3 -4 32 -21 65 -38 128 -66 201 -107 218 -122 17 -15
20 -15 38 8 10 14 19 30 19 36 0 6 9 21 20 34 11 13 20 27 20 31 0 5 20 41 44
81 25 40 43 76 40 79 -2 4 -21 16 -41 27 -83 43 -159 85 -168 92 -5 4 -55 31
-110 60 -55 29 -109 59 -120 66 -29 21 -64 16 -125 -18z"/>
<path d="M2056 5212 c-2 -4 -25 -19 -51 -32 -26 -14 -54 -30 -63 -35 -32 -19
-277 -158 -332 -188 -30 -17 -72 -41 -92 -54 -21 -13 -42 -23 -48 -23 -31 0
-11 -60 60 -175 11 -16 29 -49 41 -72 13 -24 28 -43 36 -43 7 0 35 14 61 30
27 17 52 30 56 30 3 0 23 10 44 23 20 13 62 37 92 54 195 107 380 217 379 227
0 6 -13 34 -29 61 -16 28 -38 67 -49 87 -57 105 -88 137 -105 110z"/>
<path d="M6383 5183 c-13 -31 -70 -135 -103 -187 -11 -18 -20 -40 -20 -48 0
-9 90 -66 218 -139 119 -68 226 -129 237 -136 11 -7 30 -17 42 -22 12 -6 40
-22 62 -36 50 -31 78 -32 91 -2 6 12 14 29 19 37 53 85 111 191 111 203 0 8
-12 20 -27 26 -16 6 -44 21 -63 32 -19 12 -60 35 -90 52 -105 59 -175 98 -210
119 -19 11 -55 31 -80 45 -25 13 -58 33 -75 44 -73 46 -96 49 -112 12z"/>
<path d="M2255 4724 c-44 -24 -91 -50 -105 -57 -14 -6 -27 -14 -30 -17 -3 -3
-16 -11 -30 -18 -14 -7 -52 -28 -85 -47 -33 -19 -67 -38 -75 -42 -8 -4 -46
-25 -85 -48 -38 -22 -83 -47 -99 -55 -16 -8 -31 -20 -33 -27 -5 -11 54 -117
86 -155 26 -32 291 -20 291 12 0 6 5 10 11 10 6 0 56 27 111 60 54 33 101 60
105 60 4 0 155 88 180 105 3 1 -46 91 -67 125 -5 8 -26 43 -45 78 -20 34 -39
62 -43 62 -4 -1 -43 -21 -87 -46z"/>
<path d="M6138 4743 c-9 -10 -33 -49 -54 -88 -20 -38 -48 -87 -61 -108 -23
-37 -24 -40 -7 -58 9 -10 21 -19 27 -19 5 0 43 -20 84 -45 40 -25 76 -45 79
-45 4 0 43 -22 89 -50 46 -27 86 -50 91 -50 4 0 16 -8 26 -17 16 -14 43 -18
138 -21 114 -3 160 5 160 28 0 5 16 35 35 67 41 68 42 76 13 91 -13 6 -45 25
-73 42 -27 16 -62 35 -77 41 -16 6 -28 15 -28 20 0 5 -9 9 -19 9 -11 0 -23 5
-26 11 -4 5 -17 15 -28 20 -12 5 -40 20 -62 32 -22 13 -65 37 -95 54 -157 85
-189 103 -193 103 -2 0 -11 -8 -19 -17z"/>
<path d="M2505 4381 c-27 -14 -61 -34 -75 -42 -14 -9 -78 -47 -142 -85 -65
-38 -118 -71 -118 -74 0 -3 35 -24 78 -48 42 -24 126 -72 186 -108 61 -36 117
-63 125 -62 16 3 117 164 126 201 4 15 -14 54 -59 130 -35 59 -65 110 -67 112
-2 2 -26 -9 -54 -24z"/>
<path d="M5933 4388 c-21 -27 -111 -184 -117 -203 -6 -21 -3 -27 54 -122 19
-32 38 -66 42 -76 4 -9 14 -20 21 -23 8 -3 70 28 138 69 68 41 152 89 187 107
34 17 62 35 62 39 0 7 -363 221 -374 221 -2 0 -8 -6 -13 -12z"/>
<path d="M1807 4112 c-10 -10 -17 -22 -17 -25 0 -4 -19 -37 -41 -74 -53 -86
-52 -86 86 -158 28 -14 64 -34 80 -45 17 -11 44 -26 60 -34 17 -9 57 -30 90
-49 33 -18 76 -42 95 -52 19 -11 60 -34 90 -51 98 -56 91 -59 159 58 32 57 68
117 79 135 19 30 19 32 3 47 -10 9 -21 16 -25 16 -5 0 -45 23 -91 50 -46 28
-88 50 -94 50 -6 0 -11 4 -11 9 0 5 -10 13 -22 17 -11 3 -54 26 -93 50 -40 24
-76 44 -79 44 -4 0 -14 7 -22 15 -12 11 -41 15 -123 15 -92 0 -110 -3 -124
-18z"/>
<path d="M6425 4101 c-27 -16 -93 -52 -145 -81 -102 -57 -152 -85 -227 -125
-56 -30 -66 -44 -49 -65 7 -8 43 -66 80 -127 37 -62 72 -113 78 -113 6 0 32
12 57 28 25 15 71 40 101 55 30 16 71 38 90 49 19 11 63 36 97 54 68 37 160
89 183 104 8 5 30 17 48 26 19 10 36 23 39 30 5 12 -65 142 -95 177 -12 14
-32 17 -111 16 -86 0 -101 -3 -146 -28z"/>
<path d="M1582 3733 c-6 -16 -25 -50 -42 -78 -16 -27 -34 -59 -40 -70 -6 -11
-21 -38 -33 -60 l-23 -40 31 -19 c16 -11 53 -32 80 -46 28 -15 113 -63 190
-107 77 -44 163 -93 190 -108 28 -15 57 -34 66 -41 8 -8 23 -14 33 -14 9 0 19
-7 22 -15 12 -30 33 -14 71 53 21 37 42 75 48 84 5 10 23 41 38 70 l28 52 -21
16 c-20 15 -248 147 -355 205 -27 15 -57 33 -65 39 -8 7 -35 22 -60 34 -25 13
-63 34 -85 47 -51 31 -58 31 -73 -2z"/>
<path d="M6825 3734 c-22 -13 -49 -28 -60 -34 -11 -6 -36 -20 -55 -31 -19 -11
-127 -73 -239 -137 -111 -63 -205 -122 -208 -130 -3 -7 4 -26 16 -42 11 -16
21 -32 21 -34 0 -3 18 -36 41 -72 22 -37 45 -78 50 -91 12 -33 44 -29 114 17
17 11 37 23 45 27 8 4 110 61 225 127 116 66 223 126 238 134 24 12 28 19 22
41 -4 14 -12 33 -19 41 -7 8 -16 22 -20 30 -4 8 -12 24 -19 35 -7 11 -28 48
-47 83 -20 36 -41 62 -50 61 -8 -1 -33 -12 -55 -25z"/>
<path d="M1333 3287 c-10 -13 -27 -41 -38 -63 -11 -21 -23 -41 -27 -44 -3 -3
-18 -28 -32 -55 -15 -28 -32 -57 -38 -67 -15 -21 1 -42 51 -67 57 -28 172 -92
213 -118 21 -12 40 -23 44 -23 4 0 40 -20 81 -45 40 -25 78 -45 84 -45 5 0 27
11 49 25 22 14 42 25 46 25 3 0 43 23 89 50 46 28 87 50 92 50 6 0 18 8 27 19
16 18 15 20 -34 50 -28 17 -53 31 -56 31 -4 0 -32 15 -63 34 -31 19 -83 49
-116 66 -33 18 -78 43 -100 55 -22 12 -71 39 -110 60 -38 21 -87 49 -107 61
l-37 24 -18 -23z"/>
<path d="M7095 3286 c-22 -12 -71 -40 -110 -61 -38 -20 -74 -41 -80 -45 -5 -4
-41 -25 -80 -45 -38 -21 -88 -49 -110 -61 -22 -13 -62 -35 -90 -50 -27 -14
-62 -32 -77 -40 -16 -9 -28 -20 -28 -27 1 -15 24 -47 35 -47 4 0 44 -22 89
-48 44 -27 102 -59 127 -72 l47 -24 58 29 c33 16 76 40 96 52 21 13 63 37 93
53 30 17 81 44 113 61 31 18 74 41 95 51 20 11 37 22 37 24 0 1 -13 23 -30 47
-16 25 -30 48 -30 52 0 4 -20 41 -45 82 -25 40 -45 78 -45 83 0 15 -21 11 -65
-14z"/>
<path d="M4197 3068 c-93 -135 -275 -269 -462 -339 -33 -12 -55 -26 -55 -35 0
-8 24 -56 54 -107 30 -51 62 -106 72 -124 11 -18 53 -90 94 -160 41 -70 82
-141 91 -158 9 -16 37 -65 63 -108 25 -43 46 -80 46 -82 0 -2 27 -48 59 -103
33 -56 62 -110 66 -121 8 -27 42 -27 50 0 4 11 27 54 51 95 24 41 44 77 44 79
0 2 20 38 45 78 25 41 45 78 45 82 0 5 6 16 14 24 7 9 27 41 44 71 17 30 59
105 95 165 158 268 208 358 204 369 -3 6 -29 20 -58 30 -184 65 -359 191 -489
355 l-35 43 -38 -54z"/>
<path d="M1026 2757 c-32 -56 -67 -114 -77 -129 -11 -15 -19 -31 -19 -37 0 -8
93 -71 105 -71 3 0 27 -13 53 -30 27 -16 55 -30 62 -30 7 0 45 20 84 44 39 23
106 63 149 87 42 24 76 48 74 53 -3 9 -354 216 -366 216 -3 0 -32 -46 -65
-103z"/>
<path d="M7360 2845 c-7 -8 -16 -15 -20 -15 -4 0 -59 -30 -121 -68 -63 -37
-131 -76 -151 -87 -21 -11 -38 -23 -38 -27 0 -4 33 -26 73 -49 39 -22 109 -64
155 -91 l83 -50 109 63 c61 35 110 67 110 72 0 6 -34 68 -76 138 -77 130 -96
148 -124 114z"/>
<path d="M5399 2826 c-5 -6 -9 -116 -9 -259 l0 -249 50 -83 c28 -46 50 -86 50
-90 0 -3 7 -14 16 -22 12 -12 41 -17 115 -20 l99 -3 0 147 c0 82 -3 246 -7
365 l-6 217 -149 3 c-85 2 -153 -1 -159 -6z"/>
<path d="M1990 2811 c-14 -10 -73 -47 -132 -81 -59 -34 -112 -68 -117 -74 -6
-8 -11 -117 -11 -282 l-1 -269 160 -3 160 -2 3 347 c2 192 1 356 -1 366 -4 22
-29 21 -61 -2z"/>
<path d="M2255 2818 c-3 -7 -6 -172 -7 -366 l-3 -352 160 0 160 0 4 365 3 365
-156 0 c-116 0 -158 -3 -161 -12z"/>
<path d="M2785 2821 c-3 -6 -8 -149 -11 -318 -2 -169 -6 -329 -9 -355 l-4 -48
109 0 c74 0 110 4 110 11 0 6 22 48 49 93 27 44 50 90 51 101 1 11 2 134 1
273 l-1 252 -144 0 c-80 0 -147 -4 -151 -9z"/>
<path d="M5925 2820 c-4 -6 -5 -170 -3 -365 l3 -353 160 3 160 3 0 359 0 358
-157 3 c-104 2 -159 -1 -163 -8z"/>
<path d="M6438 2813 c0 -10 0 -25 1 -33 1 -8 5 -163 9 -343 l7 -329 140 1 c77
0 146 0 153 0 18 1 15 530 -2 554 -7 8 -38 30 -71 49 -103 59 -126 72 -162 96
-41 27 -72 29 -75 5z"/>
<path d="M3465 2645 c-47 -16 -221 -19 -230 -5 -3 6 -13 10 -21 10 -11 0 -14
-23 -14 -124 0 -78 4 -127 11 -131 6 -4 21 2 33 14 12 12 26 21 30 21 7 0 294
167 309 181 5 4 6 16 2 28 -8 25 -55 27 -120 6z"/>
<path d="M4919 2639 c-15 -29 -3 -39 171 -139 80 -46 147 -87 148 -92 2 -4 12
-8 23 -8 18 0 19 8 19 125 0 102 -3 125 -14 125 -8 0 -18 -4 -21 -10 -9 -15
-161 -12 -230 5 -79 19 -82 19 -96 -6z"/>
<path d="M6960 2323 l0 -218 157 1 158 2 3 113 c3 125 -2 159 -22 159 -7 0
-23 9 -36 20 -13 11 -27 20 -31 20 -5 0 -37 17 -72 39 -35 21 -73 41 -84 45
-12 4 -27 13 -33 21 -7 8 -19 15 -26 15 -12 0 -14 -39 -14 -217z"/>
<path d="M1490 2521 c0 -5 -10 -13 -22 -17 -12 -3 -49 -23 -83 -44 -34 -21
-71 -41 -83 -44 -12 -4 -22 -11 -22 -16 0 -4 -13 -13 -30 -19 -16 -5 -30 -16
-31 -23 0 -7 -3 -26 -5 -43 -3 -16 -7 -72 -10 -122 l-6 -93 169 0 168 0 0 215
0 215 -22 0 c-13 0 -23 -4 -23 -9z"/>
<path d="M3595 2485 c-22 -13 -65 -36 -95 -51 -30 -15 -57 -30 -60 -34 -3 -3
-26 -17 -52 -30 -27 -13 -48 -27 -48 -32 0 -4 -6 -8 -12 -8 -7 -1 -42 -18 -77
-39 -56 -35 -69 -50 -118 -131 -34 -56 -53 -99 -50 -110 3 -11 25 -53 48 -94
30 -51 50 -75 63 -76 10 0 55 22 100 49 44 27 97 58 116 70 19 12 47 26 63 32
15 6 27 15 27 19 0 5 10 12 21 15 20 7 264 149 282 165 8 7 -8 60 -21 70 -4 3
-13 16 -19 30 -13 26 -44 80 -82 143 -13 20 -28 37 -34 37 -7 -1 -30 -12 -52
-25z"/>
<path d="M4801 2431 c-22 -38 -41 -72 -41 -75 0 -4 -13 -25 -30 -48 -42 -58
-39 -78 15 -108 25 -14 45 -28 45 -32 0 -5 5 -8 11 -8 6 0 44 -20 84 -44 39
-24 82 -47 93 -50 12 -4 22 -11 22 -16 0 -4 12 -13 28 -19 15 -6 43 -20 62
-32 19 -12 72 -43 118 -71 45 -27 90 -48 99 -46 20 4 103 134 103 162 0 11
-25 62 -56 115 -55 97 -64 105 -159 154 -22 12 -42 23 -45 26 -3 4 -27 17 -55
31 -27 14 -64 35 -81 48 -17 12 -34 22 -39 22 -4 0 -30 14 -57 30 -26 17 -54
30 -62 30 -8 0 -32 -31 -55 -69z"/>
<path d="M821 2358 c-32 -8 -60 -27 -103 -69 l-58 -57 0 -63 c1 -58 3 -66 28
-84 38 -28 141 -28 202 2 117 55 180 192 116 252 -29 27 -116 36 -185 19z"/>
<path d="M7533 2363 c-13 -2 -32 -16 -43 -30 -54 -69 6 -193 120 -246 61 -30
164 -30 202 -2 25 18 27 26 28 84 l0 63 -58 57 c-47 46 -68 59 -111 69 -52 12
-95 13 -138 5z"/>
<path d="M3886 2051 c-3 -5 -50 -34 -103 -65 -54 -32 -105 -61 -113 -66 -14
-8 -159 -93 -190 -110 -182 -106 -200 -121 -178 -148 8 -9 18 -24 22 -32 3 -8
22 -42 41 -75 20 -33 41 -71 48 -85 29 -59 34 -60 91 -22 28 19 65 41 81 48
17 8 39 20 50 27 50 32 103 63 135 80 19 11 54 32 78 48 24 16 45 29 47 29 10
0 154 91 165 104 9 12 -3 40 -66 145 -71 121 -94 146 -108 122z"/>
<path d="M4578 2042 c-22 -27 -148 -238 -148 -249 0 -9 175 -119 270 -171 14
-7 39 -22 55 -32 17 -11 39 -24 50 -30 11 -6 34 -19 50 -30 17 -11 42 -25 58
-31 15 -6 27 -15 27 -19 0 -5 10 -12 23 -15 12 -4 36 -18 54 -31 l32 -24 49
83 c27 45 52 89 56 97 11 25 31 57 45 74 20 24 7 35 -177 142 -92 53 -183 107
-202 119 -19 12 -64 39 -100 60 -36 21 -79 46 -96 56 -29 18 -32 18 -46 1z"/>
<path d="M4127 1590 c-14 -11 -27 -20 -30 -20 -4 0 -250 -143 -327 -190 -8 -5
-61 -37 -117 -71 -57 -33 -103 -64 -103 -68 0 -3 9 -21 20 -39 11 -18 32 -54
46 -80 14 -26 34 -60 45 -77 10 -16 23 -40 29 -52 10 -24 29 -30 45 -14 10 10
294 181 301 181 1 0 23 14 47 30 25 17 48 30 51 30 4 0 20 10 36 22 l30 22 0
147 c0 195 -13 226 -73 179z"/>
<path d="M4311 1588 c-5 -13 -9 -92 -8 -175 l0 -152 28 -20 c16 -12 31 -21 34
-21 3 0 24 -12 48 -27 59 -38 80 -51 97 -59 8 -4 73 -43 143 -86 71 -43 132
-78 136 -78 4 0 13 10 20 23 6 12 20 36 31 52 11 17 24 39 29 51 5 12 23 44
40 71 17 28 31 59 31 69 0 14 -68 59 -262 174 -144 85 -271 159 -282 163 -11
4 -23 12 -26 16 -3 5 -15 11 -27 15 -18 6 -25 2 -32 -16z"/>
<path d="M4094 966 c-75 -46 -186 -108 -241 -135 -18 -9 -34 -21 -37 -28 -3
-7 19 -53 49 -103 30 -50 64 -109 75 -130 11 -22 28 -40 36 -40 9 0 53 23 99
50 46 28 86 50 90 50 4 0 14 8 21 18 10 12 13 62 14 190 0 202 5 196 -106 128z"/>
<path d="M4305 1000 c-3 -6 -5 -83 -4 -173 2 -152 10 -197 33 -197 4 0 45 -22
91 -50 46 -27 90 -50 98 -50 9 0 22 12 29 28 8 15 40 70 71 124 31 53 57 103
57 111 0 12 -109 87 -127 87 -3 0 -54 29 -113 65 -111 67 -124 72 -135 55z"/>
<path d="M4189 437 c-46 -31 -62 -68 -67 -158 -5 -85 7 -136 45 -186 22 -31
28 -33 83 -33 55 0 61 2 83 33 14 17 30 49 37 71 15 48 9 180 -11 221 -18 37
-73 75 -109 75 -15 0 -42 -10 -61 -23z"/>
</g>
</svg>
